# xmcd
#
# Track frame offsets:
#	225
#	11157
#	41330
#	54412
#	80029
#	90220
#	116568
#	122131
#	133403
#	143370
#	156229
#	166736
#	180705
#	196357
#	212633
#	223105
#
# Disc length: 3265 seconds
#
# Revision: 10
# Processed by: cddbd v1.5.2PL0 Copyright (c) Steve Scherf et al.
# Submitted via: audiograbber 1.83.01
#
DISCID=dd0cbe10
DTITLE=Eric Clapton - Volume I
DYEAR=1997
DGENRE=Blues
TTITLE0=Boom Boom
TTITLE1=Smokestack Lighting
TTITLE2=You Can't Judge a Book by Its Cover
TTITLE3=Take It Easy Baby
TTITLE4=Let It Rock
TTITLE5=I Wish You Would
TTITLE6=Choker
TTITLE7=Snake Drive
TTITLE8=Got to Hurry
TTITLE9=Freight Loader
TTITLE10=A Certain Girl
TTITLE11=Draggin' My Tail
TTITLE12=Louise (Louise Blues)
TTITLE13=Early in the Morning
TTITLE14=Pound and Stomps
TTITLE15=The First Time I Met the Blues
EXTD=YEAR: 1997
EXTT0=
EXTT1=
EXTT2=
EXTT3=
EXTT4=
EXTT5=
EXTT6=
EXTT7=
EXTT8=
EXTT9=
EXTT10=
EXTT11=
EXTT12=
EXTT13=
EXTT14=
EXTT15=
PLAYORDER=
